# xmcd
#
# Track frame offsets: 
#        150
#        11565
#        20377
#        31540
#        44067
#        55042
#        64792
#        75922
#        86745
#        98892
#        111927
#        124112
#        135817
#        145332
#        159192
#        171507
#        181330
#        194602
#        205925
#        218512
#        229140
#        238282
#        248992
#        258940
#        267702
#
# Disc length: 3714 seconds
#
# Revision: 1
# Processed by: cddbd v1.5.2PL0 Copyright (c) Steve Scherf et al.
# Submitted via: ExactAudioCopy v1.1
#
DISCID=5b0e8019
DTITLE=Sonny James - Sonny James_''Young Love''_The Complete Recording
DTITLE=s 1952-1962 [CD 3)
DYEAR=2002
DGENRE=Country
TTITLE0=Young Love
TTITLE1=You're The Reason I'm In Love
TTITLE2=First Date, First Kiss, First Love
TTITLE3=Speak To Me
TTITLE4=Actions Speak Louder Than Words
TTITLE5=Baby You Melt My Heart
TTITLE6=Dear Love
TTITLE7=Lovesick Blues
TTITLE8=Almost
TTITLE9=Secret Love
TTITLE10=Heartaches
TTITLE11=How's The World Treating You
TTITLE12=Beg Your Pardon
TTITLE13=Because Of You
TTITLE14=A Fool Such As I
TTITLE15=Near You
TTITLE16=Ages And Ages Ago
TTITLE17=Just Out Of Reach (Of My Two Open Arms)
TTITLE18=I'll Never Get Over You
TTITLE19=I Forgot More Than You'll Ever Know
TTITLE20=A Mighty Lovable Man
TTITLE21=(Love Came, Love Saw) Love Conquered
TTITLE22=Uh-Huh-Mm
TTITLE23=Climb Up The Ladder Of Love
TTITLE24=Why Can't They Remember
EXTD=
EXTT0=
EXTT1=
EXTT2=
EXTT3=
EXTT4=
EXTT5=
EXTT6=
EXTT7=
EXTT8=
EXTT9=
EXTT10=
EXTT11=
EXTT12=
EXTT13=
EXTT14=
EXTT15=
EXTT16=
EXTT17=
EXTT18=
EXTT19=
EXTT20=
EXTT21=
EXTT22=
EXTT23=
EXTT24=
PLAYORDER=
